<svg id="Layer_2" data-name="Layer 2" xmlns="http://www.w3.org/2000/svg" viewBox="0 0 141.73 155.91">
  <defs>
    <style>
      .cls-1 {
        fill: #1b1c20;
      }
    </style>
  </defs>
  <g id="Layer_1-2" data-name="Layer 1">
    <path class="cls-1" d="m48.94,96.34h2.97v-9l4.19-17.15h-2.93l-2.74,12.81-2.63-12.81h-3.04l4.19,17.19v8.97Zm21.4-34.04v-4.45c0-2.34-.82-3.54-2.36-4.14,1.49-.57,2.28-1.77,2.28-4.11v-3.88c0-3.28-1.61-4.9-4.86-4.9h-5.46v26.38h5.54c3.26,0,4.86-1.62,4.86-4.9Zm-7.44-18.77h2.43c1.35,0,1.98.64,1.98,2v4.63c0,1.51-.71,2.22-2.21,2.22h-2.21v-8.85Zm0,20.95v-9.42h2.28c1.5,0,2.21.72,2.21,2.22v5.2c0,1.36-.63,2-1.98,2h-2.51Zm-.87,32.08h.96c3.23,0,4.82-1.61,4.82-4.86v-5.42h-2.89v5.57c0,1.34-.63,1.98-1.97,1.98h-.81c-1.34,0-1.97-.63-1.97-1.98v-17.18c0-1.35.63-1.98,1.97-1.98h.74c1.33,0,1.96.64,1.96,1.98v4.78h2.89v-4.71c0-3.21-1.56-4.78-4.75-4.78h-.96c-3.23,0-4.82,1.61-4.82,4.86v16.89c0,3.25,1.6,4.86,4.82,4.86Zm46.28-32.15h-5.31v-9.31h5.05v-2.75h-5.05v-8.74h5.24v-2.79h-8.23v26.38h8.3v-2.79Zm-58.62-8.29h2.21c1.57,0,2.28.72,2.28,2.3v8.78h2.99v-8.89c0-2.04-.71-3.09-2.35-3.54,1.49-.6,2.32-1.77,2.32-4.14v-4.9c0-3.28-1.61-4.9-4.86-4.9h-5.57v26.38h2.99v-11.08Zm0-12.55h2.47c1.35,0,1.98.64,1.98,2v5.65c0,1.51-.71,2.22-2.21,2.22h-2.25v-9.87Zm52,52.77h2.97v-23.39h3.89v-2.77h-10.75v2.77h3.89v23.39Zm-11.31.22h.82c3.23,0,4.82-1.61,4.82-4.86v-3.81c0-2.24-.59-3.47-2.48-4.86l-3.6-2.61c-.85-.64-1.33-1.2-1.33-2.5v-3.29c0-1.34.63-1.98,1.97-1.98h.52c1.34,0,1.97.63,1.97,1.98v4.82h2.89v-4.71c0-3.18-1.56-4.78-4.75-4.78h-.74c-3.23,0-4.82,1.61-4.82,4.86v3.14c0,2.13.56,3.47,2.48,4.86l3.63,2.65c.85.63,1.3,1.2,1.3,2.5v3.92c0,1.34-.63,1.98-1.97,1.98h-.59c-1.33,0-1.96-.64-1.96-1.98v-5.6h-2.89v5.49c0,3.17,1.56,4.78,4.75,4.78Zm-1.67-49.98l4.71,20.61h3.74v-26.38h-2.84v19.11l-4.34-19.11h-4.12v26.38h2.84v-20.61Zm-8.94-5.84h-3.82l-4.04,26.46h2.88l.6-4.41h4.82l.64,4.41h2.96l-4.04-26.46Zm-4,19.33l2.06-14.58,2.02,14.58h-4.08Zm4.35,36.26h2.97v-26.15h-2.97v26.15Zm-9.9,0h7.86v-2.76h-4.9v-23.39h-2.97v26.15Zm-32.22.22h.96c3.23,0,4.82-1.61,4.82-4.86v-5.42h-2.89v5.57c0,1.34-.63,1.98-1.97,1.98h-.82c-1.33,0-1.97-.63-1.97-1.98v-17.18c0-1.35.63-1.98,1.97-1.98h.74c1.33,0,1.97.64,1.97,1.98v4.78h2.89v-4.71c0-3.21-1.56-4.78-4.75-4.78h-.96c-3.23,0-4.82,1.61-4.82,4.86v16.89c0,3.25,1.59,4.86,4.82,4.86Zm.09-29.14h.93c3.25,0,4.86-1.62,4.86-4.9v-21.71h-2.99v21.86c0,1.35-.64,2-1.98,2h-.71c-1.34,0-1.98-.64-1.98-2v-21.86h-2.99v21.71c0,3.28,1.61,4.9,4.86,4.9Zm33.78-35.38h.76v-7.04h-.41l-.12.16c-.25.33-.45.46-.89.5v.62h.66v5.76Zm-9.61.06h.22c.86,0,1.29-.43,1.29-1.3v-1.02c0-.6-.16-.93-.66-1.3l-.96-.7c-.23-.17-.36-.32-.36-.67v-.88c0-.36.17-.53.53-.53h.14c.36,0,.53.17.53.53v1.29h.78v-1.26c0-.85-.42-1.28-1.27-1.28h-.2c-.87,0-1.29.43-1.29,1.3v.84c0,.57.15.93.66,1.3l.97.71c.23.17.35.32.35.67v1.05c0,.36-.17.53-.53.53h-.16c-.36,0-.53-.17-.53-.53v-1.5h-.77v1.47c0,.85.41,1.28,1.27,1.28Zm19.68-.06h.76l1.37-6.29v-.72h-2.43v.74h1.68l-1.37,6.27Zm-13.29-1.16h-.78v1.16h.78v-1.16Zm-3.01,1.16h.8v-6.27h1.04v-.74h-2.88v.74h1.04v6.27Zm-5.77-.74h-1.41v-2.47h1.34v-.73h-1.34v-2.32h1.39v-.74h-2.19v7.01h2.21v-.74Zm19.15-2.03h.03c.31,0,.59-.08.83-.21v1.78c0,.36-.17.53-.51.53h-.19c-.34,0-.51-.17-.51-.53v-.89h-.77v.89c0,.88.4,1.26,1.27,1.26h.19c.86,0,1.29-.43,1.29-1.3v-4.53c0-.87-.43-1.3-1.29-1.3h-.18c-.87,0-1.29.43-1.29,1.3v1.83c0,.69.42,1.16,1.12,1.16Zm-.35-3.04c0-.36.17-.53.51-.53h.19c.34,0,.51.17.51.53v2.14c-.16.08-.44.15-.68.15-.34,0-.53-.17-.53-.57v-1.72Zm-3.61,3.04h.03c.31,0,.59-.08.82-.21v1.78c0,.36-.17.53-.51.53h-.19c-.34,0-.51-.17-.51-.53v-.89h-.77v.89c0,.88.4,1.26,1.27,1.26h.19c.87,0,1.29-.43,1.29-1.3v-4.53c0-.87-.43-1.3-1.29-1.3h-.18c-.87,0-1.29.43-1.29,1.3v1.83c0,.69.41,1.16,1.12,1.16Zm-.35-3.04c0-.36.17-.53.51-.53h.19c.34,0,.51.17.51.53v2.14c-.16.08-.44.15-.68.15-.33,0-.53-.17-.53-.57v-1.72Zm-20.49,82.98v-2.04c0-1.37-.67-2.05-2.03-2.05h-2.33v11.01h1.25v-4.63h.92c.66,0,.95.3.95.96v3.67h1.25v-3.71c0-.85-.3-1.29-.98-1.48.63-.25.97-.74.97-1.73Zm-1.25.25c0,.63-.3.93-.92.93h-.94v-4.12h1.03c.56,0,.83.27.83.84v2.36Zm3.72-4.34v11.01h1.25v-5.41l2.05,5.41h1.38l-2.19-5.6,2.25-5.41h-1.33l-2.16,5.33v-5.33h-1.25Zm35.91,6.04v1.13h2.72v-1.13h-2.72Zm-25.78-4.88v-1.16h-3.44v11.01h3.47v-1.17h-2.22v-3.88h2.11v-1.15h-2.11v-3.65h2.19Zm16.75,2.74v-1.98c0-1.35-.66-2.01-2-2.01h-.41c-1.36,0-2.03.68-2.03,2.05v7.11c0,1.37.67,2.05,2.03,2.05h.41c1.36,0,2.03-.68,2.03-2.05v-2.28h-1.22v2.34c0,.57-.27.83-.83.83h-.34c-.56,0-.83-.27-.83-.83v-7.24c0-.57.26-.83.83-.83h.31c.56,0,.83.27.83.83v2.01h1.22Zm16.35,7.21c1.36,0,2.03-.68,2.03-2.05v-7.11c0-1.37-.67-2.05-2.03-2.05h-.47c-1.36,0-2.03.68-2.03,2.05v7.11c0,1.37.67,2.05,2.03,2.05h.47Zm-1.25-1.98v-7.24c0-.57.26-.83.83-.83h.37c.56,0,.83.27.83.83v7.24c0,.57-.27.83-.83.83h-.37c-.56,0-.83-.27-.83-.83Zm-25.14-5.04v-2.04c0-1.37-.67-2.05-2.03-2.05h-2.33v11.01h1.25v-4.63h.92c.66,0,.95.3.95.96v3.67h1.25v-3.71c0-.85-.3-1.29-.98-1.48.62-.25.97-.74.97-1.73Zm-1.25.25c0,.63-.3.93-.92.93h-.94v-4.12h1.03c.56,0,.83.27.83.84v2.36Zm-26.9,6.77c1.36,0,2.03-.68,2.03-2.05v-7.11c0-1.37-.67-2.05-2.03-2.05h-.47c-1.36,0-2.03.68-2.03,2.05v7.11c0,1.37.67,2.05,2.03,2.05h.47Zm-1.25-1.98v-7.24c0-.57.26-.83.83-.83h.37c.56,0,.83.27.83.83v7.24c0,.57-.26.83-.83.83h-.37c-.56,0-.83-.27-.83-.83Zm-11.15,4.65h75.78v-1.07H32.98v1.07Zm73.58-6.9c1.36,0,2.03-.68,2.03-2.05v-2.79c0-1.37-.67-2.05-2.03-2.05h-2.16v11.01h1.25v-4.14h.91Zm-.91-5.73h.86c.56,0,.83.27.83.84v2.91c0,.57-.26.83-.83.83h-.86v-4.58Zm-72.67-2.83h75.78v-1.07H32.98v1.07Zm55.48,12.79c1.36,0,2.03-.68,2.03-2.05v-7.11c0-1.37-.67-2.05-2.03-2.05h-.47c-1.36,0-2.03.68-2.03,2.05v7.11c0,1.37.67,2.05,2.03,2.05h.47Zm-1.25-1.98v-7.24c0-.57.27-.83.83-.83h.37c.56,0,.83.27.83.83v7.24c0,.57-.26.83-.83.83h-.37c-.56,0-.83-.27-.83-.83Zm-50.26-6.01l.87,7.9h1.62l1.33-11.01h-1.22l-.95,9.31-1.01-9.31h-1.25l-1.02,9.33-.95-9.33h-1.25l1.33,11.01h1.62l.87-7.9Zm100.93-69.27c-2.52-4.4-6.16-8.07-10.53-10.61L85.25,3.88c-4.36-2.54-9.34-3.88-14.39-3.88s-10.02,1.34-14.38,3.88L14.38,28.37c-4.37,2.54-8.01,6.21-10.53,10.61-2.52,4.4-3.85,9.41-3.85,14.49v48.97c0,5.08,1.33,10.09,3.85,14.49,2.52,4.4,6.16,8.07,10.53,10.61l42.09,24.48c4.37,2.54,9.34,3.88,14.38,3.88s10.01-1.34,14.38-3.88l42.1-24.49c4.37-2.54,8.01-6.21,10.53-10.61,2.52-4.4,3.86-9.41,3.86-14.49v-48.97c0-5.08-1.33-10.1-3.85-14.49Zm2.44,63.46c0,4.84-1.27,9.6-3.67,13.78-2.4,4.18-5.86,7.67-10.01,10.08l-42.1,24.49c-4.16,2.42-8.89,3.69-13.68,3.69s-9.53-1.28-13.68-3.69l-42.1-24.48c-4.15-2.42-7.62-5.91-10.01-10.09-2.4-4.18-3.66-8.95-3.66-13.78v-48.97c0-4.83,1.27-9.6,3.66-13.78,2.39-4.18,5.86-7.67,10.01-10.09L57.19,5.12c4.15-2.41,8.88-3.69,13.68-3.69s9.53,1.28,13.68,3.69l42.1,24.48c4.15,2.42,7.62,5.91,10.01,10.09,2.4,4.18,3.66,8.94,3.66,13.78v48.97Zm-16.46-67.98l-42.1-24.48c-3.31-1.92-7.08-2.94-10.9-2.94s-7.59,1.02-10.9,2.94l-42.1,24.49c-3.31,1.93-6.07,4.71-7.98,8.04-1.91,3.33-2.92,7.13-2.92,10.98v48.97c0,3.85,1.01,7.64,2.92,10.98,1.91,3.33,4.67,6.11,7.98,8.04l42.09,24.48c3.31,1.92,7.08,2.94,10.9,2.94s7.59-1.02,10.9-2.94l42.1-24.49c3.31-1.93,6.07-4.7,7.97-8.04,1.91-3.33,2.92-7.13,2.92-10.98v-48.97c0-3.85-1.01-7.65-2.92-10.98-1.91-3.33-4.67-6.11-7.98-8.04Zm7.4,67.98c0,3.23-.85,6.42-2.45,9.21-1.6,2.8-3.92,5.13-6.7,6.75l-42.1,24.49c-2.78,1.62-5.94,2.47-9.15,2.47s-6.37-.85-9.15-2.47l-42.1-24.48c-2.78-1.62-5.09-3.95-6.7-6.75-1.6-2.8-2.45-5.98-2.45-9.21v-48.97c0-3.23.85-6.42,2.45-9.21,1.6-2.8,3.92-5.13,6.7-6.75L61.72,13.02c2.78-1.62,5.94-2.47,9.15-2.47s6.37.85,9.15,2.47l42.1,24.48c2.78,1.62,5.09,3.95,6.7,6.75,1.6,2.8,2.45,5.98,2.45,9.21v48.97Z"/>
  </g>
</svg>
